<mxfile host="app.diagrams.net" modified="2023-05-29T17:27:51.410Z" agent="Mozilla/5.0 (Windows NT 10.0; Win64; x64) AppleWebKit/537.36 (KHTML, like Gecko) Chrome/113.0.0.0 Safari/537.36" etag="_mr2iEae4nSkehXNNef2" version="21.3.5" type="device">
  <diagram name="Página-1" id="DvbjU0-v8m7CwfoHBpMm">
    <mxGraphModel dx="2320" dy="734" grid="1" gridSize="10" guides="1" tooltips="1" connect="1" arrows="1" fold="1" page="1" pageScale="1" pageWidth="827" pageHeight="1169" math="0" shadow="0">
      <root>
        <mxCell id="0" />
        <mxCell id="1" parent="0" />
        <mxCell id="KvBDM7igoajrg9fZ26sa-5" value="" style="rounded=0;whiteSpace=wrap;html=1;fillColor=none;" parent="1" vertex="1">
          <mxGeometry x="1050" y="120" width="80" height="60" as="geometry" />
        </mxCell>
        <mxCell id="dNpqoyhvKu2HC9lqtAju-5" value="" style="rounded=0;whiteSpace=wrap;html=1;fillColor=none;" parent="1" vertex="1">
          <mxGeometry x="100" y="120" width="1030" height="3520" as="geometry" />
        </mxCell>
        <mxCell id="KvBDM7igoajrg9fZ26sa-2" value="Gestión de citas" style="text;html=1;strokeColor=none;fillColor=none;align=center;verticalAlign=middle;whiteSpace=wrap;rounded=0;" parent="1" vertex="1">
          <mxGeometry x="1060" y="135" width="60" height="30" as="geometry" />
        </mxCell>
        <mxCell id="KvBDM7igoajrg9fZ26sa-7" value="Admin" style="shape=umlActor;verticalLabelPosition=bottom;verticalAlign=top;html=1;outlineConnect=0;" parent="1" vertex="1">
          <mxGeometry x="-443" y="1570" width="30" height="60" as="geometry" />
        </mxCell>
        <mxCell id="KvBDM7igoajrg9fZ26sa-8" value="obtenerInforme" style="ellipse;whiteSpace=wrap;html=1;fillColor=#ffe6cc;strokeColor=#d79b00;" parent="1" vertex="1">
          <mxGeometry x="190" y="410" width="120" height="80" as="geometry" />
        </mxCell>
        <mxCell id="KvBDM7igoajrg9fZ26sa-9" value="añadirInforme" style="ellipse;whiteSpace=wrap;html=1;fillColor=#ffe6cc;strokeColor=#d79b00;" parent="1" vertex="1">
          <mxGeometry x="190" y="130" width="120" height="80" as="geometry" />
        </mxCell>
        <mxCell id="KvBDM7igoajrg9fZ26sa-10" value="editarInforme" style="ellipse;whiteSpace=wrap;html=1;fillColor=#ffe6cc;strokeColor=#d79b00;" parent="1" vertex="1">
          <mxGeometry x="190" y="220" width="120" height="80" as="geometry" />
        </mxCell>
        <mxCell id="KvBDM7igoajrg9fZ26sa-11" value="borrarInforme" style="ellipse;whiteSpace=wrap;html=1;fillColor=#ffe6cc;strokeColor=#d79b00;" parent="1" vertex="1">
          <mxGeometry x="190" y="310" width="120" height="80" as="geometry" />
        </mxCell>
        <mxCell id="KvBDM7igoajrg9fZ26sa-12" value="obtenerInformes" style="ellipse;whiteSpace=wrap;html=1;fillColor=#ffe6cc;strokeColor=#d79b00;" parent="1" vertex="1">
          <mxGeometry x="610" y="380" width="120" height="80" as="geometry" />
        </mxCell>
        <mxCell id="KvBDM7igoajrg9fZ26sa-13" value="" style="endArrow=none;html=1;rounded=0;exitX=0.5;exitY=0.5;exitDx=0;exitDy=0;exitPerimeter=0;entryX=0;entryY=0.5;entryDx=0;entryDy=0;" parent="1" source="KvBDM7igoajrg9fZ26sa-7" target="KvBDM7igoajrg9fZ26sa-9" edge="1">
          <mxGeometry width="50" height="50" relative="1" as="geometry">
            <mxPoint x="290" y="510" as="sourcePoint" />
            <mxPoint x="340" y="460" as="targetPoint" />
          </mxGeometry>
        </mxCell>
        <mxCell id="KvBDM7igoajrg9fZ26sa-14" value="obtenerInformesSegunMatricula" style="ellipse;whiteSpace=wrap;html=1;fillColor=#ffe6cc;strokeColor=#d79b00;" parent="1" vertex="1">
          <mxGeometry x="200.5" y="680" width="160" height="80" as="geometry" />
        </mxCell>
        <mxCell id="KvBDM7igoajrg9fZ26sa-16" value="obtenerInformesSegunTipoVehiculo" style="ellipse;whiteSpace=wrap;html=1;fillColor=#ffe6cc;strokeColor=#d79b00;" parent="1" vertex="1">
          <mxGeometry x="389.75" y="560" width="180" height="80" as="geometry" />
        </mxCell>
        <mxCell id="KvBDM7igoajrg9fZ26sa-18" value="obtenerInformesSegunFecha" style="ellipse;whiteSpace=wrap;html=1;fillColor=#ffe6cc;strokeColor=#d79b00;" parent="1" vertex="1">
          <mxGeometry x="399.75" y="750" width="160" height="80" as="geometry" />
        </mxCell>
        <mxCell id="KvBDM7igoajrg9fZ26sa-20" value="" style="endArrow=none;html=1;rounded=0;exitX=0.5;exitY=0.5;exitDx=0;exitDy=0;exitPerimeter=0;entryX=0;entryY=0.5;entryDx=0;entryDy=0;" parent="1" source="KvBDM7igoajrg9fZ26sa-7" edge="1">
          <mxGeometry width="50" height="50" relative="1" as="geometry">
            <mxPoint x="290" y="730" as="sourcePoint" />
            <mxPoint x="199.99999999999181" y="720" as="targetPoint" />
          </mxGeometry>
        </mxCell>
        <mxCell id="KvBDM7igoajrg9fZ26sa-21" value="" style="endArrow=none;html=1;rounded=0;exitX=0.5;exitY=0.5;exitDx=0;exitDy=0;exitPerimeter=0;entryX=0;entryY=0.5;entryDx=0;entryDy=0;" parent="1" source="KvBDM7igoajrg9fZ26sa-7" target="KvBDM7igoajrg9fZ26sa-11" edge="1">
          <mxGeometry width="50" height="50" relative="1" as="geometry">
            <mxPoint x="290" y="730" as="sourcePoint" />
            <mxPoint x="340" y="680" as="targetPoint" />
          </mxGeometry>
        </mxCell>
        <mxCell id="KvBDM7igoajrg9fZ26sa-22" value="" style="endArrow=none;html=1;rounded=0;entryX=0;entryY=0.5;entryDx=0;entryDy=0;exitX=0.5;exitY=0.5;exitDx=0;exitDy=0;exitPerimeter=0;" parent="1" source="KvBDM7igoajrg9fZ26sa-7" target="KvBDM7igoajrg9fZ26sa-10" edge="1">
          <mxGeometry width="50" height="50" relative="1" as="geometry">
            <mxPoint x="45" y="570" as="sourcePoint" />
            <mxPoint x="340" y="680" as="targetPoint" />
          </mxGeometry>
        </mxCell>
        <mxCell id="KvBDM7igoajrg9fZ26sa-23" value="exportarInforme" style="ellipse;whiteSpace=wrap;html=1;fillColor=#ffe6cc;strokeColor=#d79b00;" parent="1" vertex="1">
          <mxGeometry x="190" y="1060" width="130" height="80" as="geometry" />
        </mxCell>
        <mxCell id="KvBDM7igoajrg9fZ26sa-25" value="aJSON" style="ellipse;whiteSpace=wrap;html=1;fillColor=#ffe6cc;strokeColor=#d79b00;" parent="1" vertex="1">
          <mxGeometry x="380" y="1010" width="120" height="80" as="geometry" />
        </mxCell>
        <mxCell id="KvBDM7igoajrg9fZ26sa-26" value="aHTML" style="ellipse;whiteSpace=wrap;html=1;fillColor=#ffe6cc;strokeColor=#d79b00;" parent="1" vertex="1">
          <mxGeometry x="380" y="1105" width="120" height="80" as="geometry" />
        </mxCell>
        <mxCell id="KvBDM7igoajrg9fZ26sa-28" value="" style="endArrow=none;html=1;rounded=0;entryX=0;entryY=0.5;entryDx=0;entryDy=0;exitX=0.5;exitY=0.5;exitDx=0;exitDy=0;exitPerimeter=0;" parent="1" source="KvBDM7igoajrg9fZ26sa-7" target="KvBDM7igoajrg9fZ26sa-23" edge="1">
          <mxGeometry width="50" height="50" relative="1" as="geometry">
            <mxPoint x="50" y="570" as="sourcePoint" />
            <mxPoint x="340" y="650" as="targetPoint" />
          </mxGeometry>
        </mxCell>
        <mxCell id="KvBDM7igoajrg9fZ26sa-29" value="mostrarVentanaAyuda" style="ellipse;whiteSpace=wrap;html=1;fillColor=#d5e8d4;strokeColor=#82b366;direction=west;" parent="1" vertex="1">
          <mxGeometry x="240" y="1350" width="140" height="80" as="geometry" />
        </mxCell>
        <mxCell id="KvBDM7igoajrg9fZ26sa-30" value="exportarInformesAJSON" style="ellipse;whiteSpace=wrap;html=1;fillColor=#ffe6cc;strokeColor=#d79b00;" parent="1" vertex="1">
          <mxGeometry x="195" y="500" width="120" height="80" as="geometry" />
        </mxCell>
        <mxCell id="KvBDM7igoajrg9fZ26sa-31" value="exportarTrabajadoresACSV" style="ellipse;whiteSpace=wrap;html=1;fillColor=#e1d5e7;strokeColor=#9673a6;" parent="1" vertex="1">
          <mxGeometry x="210.25" y="1580" width="160" height="80" as="geometry" />
        </mxCell>
        <mxCell id="KvBDM7igoajrg9fZ26sa-32" value="obtenerTrabajadores" style="ellipse;whiteSpace=wrap;html=1;fillColor=#e1d5e7;strokeColor=#9673a6;" parent="1" vertex="1">
          <mxGeometry x="539.75" y="1490" width="120" height="80" as="geometry" />
        </mxCell>
        <mxCell id="KvBDM7igoajrg9fZ26sa-33" value="" style="endArrow=none;html=1;rounded=0;exitX=0.5;exitY=0.5;exitDx=0;exitDy=0;exitPerimeter=0;entryX=0;entryY=0.5;entryDx=0;entryDy=0;" parent="1" source="KvBDM7igoajrg9fZ26sa-7" target="KvBDM7igoajrg9fZ26sa-30" edge="1">
          <mxGeometry width="50" height="50" relative="1" as="geometry">
            <mxPoint x="360" y="910" as="sourcePoint" />
            <mxPoint x="410" y="860" as="targetPoint" />
          </mxGeometry>
        </mxCell>
        <mxCell id="KvBDM7igoajrg9fZ26sa-34" value="" style="endArrow=none;html=1;rounded=0;exitX=0.5;exitY=0.5;exitDx=0;exitDy=0;exitPerimeter=0;entryX=0;entryY=0.5;entryDx=0;entryDy=0;" parent="1" source="KvBDM7igoajrg9fZ26sa-7" target="KvBDM7igoajrg9fZ26sa-31" edge="1">
          <mxGeometry width="50" height="50" relative="1" as="geometry">
            <mxPoint x="360" y="910" as="sourcePoint" />
            <mxPoint x="410" y="860" as="targetPoint" />
          </mxGeometry>
        </mxCell>
        <mxCell id="KvBDM7igoajrg9fZ26sa-35" value="" style="endArrow=none;html=1;rounded=0;entryX=1;entryY=0.5;entryDx=0;entryDy=0;exitX=0.5;exitY=0.5;exitDx=0;exitDy=0;exitPerimeter=0;" parent="1" source="KvBDM7igoajrg9fZ26sa-7" target="KvBDM7igoajrg9fZ26sa-29" edge="1">
          <mxGeometry width="50" height="50" relative="1" as="geometry">
            <mxPoint x="-65" y="930" as="sourcePoint" />
            <mxPoint x="410" y="860" as="targetPoint" />
          </mxGeometry>
        </mxCell>
        <mxCell id="KvBDM7igoajrg9fZ26sa-37" value="" style="endArrow=none;html=1;rounded=0;exitX=0;exitY=0.5;exitDx=0;exitDy=0;entryX=0.5;entryY=0.5;entryDx=0;entryDy=0;entryPerimeter=0;" parent="1" source="KvBDM7igoajrg9fZ26sa-32" target="KvBDM7igoajrg9fZ26sa-7" edge="1">
          <mxGeometry width="50" height="50" relative="1" as="geometry">
            <mxPoint x="360" y="910" as="sourcePoint" />
            <mxPoint x="410" y="860" as="targetPoint" />
          </mxGeometry>
        </mxCell>
        <mxCell id="KvBDM7igoajrg9fZ26sa-40" value="añadirVehiculo" style="ellipse;whiteSpace=wrap;html=1;fillColor=#b0e3e6;strokeColor=#0e8088;" parent="1" vertex="1">
          <mxGeometry x="229.75" y="2270" width="120" height="80" as="geometry" />
        </mxCell>
        <mxCell id="KvBDM7igoajrg9fZ26sa-41" value="editarVehiculo" style="ellipse;whiteSpace=wrap;html=1;fillColor=#b0e3e6;strokeColor=#0e8088;" parent="1" vertex="1">
          <mxGeometry x="229.5" y="2380" width="120" height="80" as="geometry" />
        </mxCell>
        <mxCell id="KvBDM7igoajrg9fZ26sa-42" value="borrarVehiculo" style="ellipse;whiteSpace=wrap;html=1;fillColor=#b0e3e6;strokeColor=#0e8088;" parent="1" vertex="1">
          <mxGeometry x="229.75" y="2470" width="120" height="80" as="geometry" />
        </mxCell>
        <mxCell id="KvBDM7igoajrg9fZ26sa-43" value="obtenerVehiculos" style="ellipse;whiteSpace=wrap;html=1;fillColor=#b0e3e6;strokeColor=#0e8088;" parent="1" vertex="1">
          <mxGeometry x="575.5" y="2430" width="120" height="80" as="geometry" />
        </mxCell>
        <mxCell id="KvBDM7igoajrg9fZ26sa-44" value="obtenerVehiculo" style="ellipse;whiteSpace=wrap;html=1;fillColor=#b0e3e6;strokeColor=#0e8088;" parent="1" vertex="1">
          <mxGeometry x="394.5" y="2220" width="120" height="70" as="geometry" />
        </mxCell>
        <mxCell id="KvBDM7igoajrg9fZ26sa-46" value="" style="endArrow=none;html=1;rounded=0;exitX=0.5;exitY=0.5;exitDx=0;exitDy=0;exitPerimeter=0;entryX=0;entryY=0.5;entryDx=0;entryDy=0;" parent="1" source="KvBDM7igoajrg9fZ26sa-7" target="KvBDM7igoajrg9fZ26sa-42" edge="1">
          <mxGeometry width="50" height="50" relative="1" as="geometry">
            <mxPoint x="60" y="1250" as="sourcePoint" />
            <mxPoint x="110" y="1200" as="targetPoint" />
          </mxGeometry>
        </mxCell>
        <mxCell id="KvBDM7igoajrg9fZ26sa-47" value="" style="endArrow=none;html=1;rounded=0;exitX=0.5;exitY=0.5;exitDx=0;exitDy=0;exitPerimeter=0;entryX=0;entryY=0.5;entryDx=0;entryDy=0;" parent="1" source="KvBDM7igoajrg9fZ26sa-7" target="KvBDM7igoajrg9fZ26sa-41" edge="1">
          <mxGeometry width="50" height="50" relative="1" as="geometry">
            <mxPoint x="60" y="1250" as="sourcePoint" />
            <mxPoint x="110" y="1200" as="targetPoint" />
          </mxGeometry>
        </mxCell>
        <mxCell id="KvBDM7igoajrg9fZ26sa-48" value="" style="endArrow=none;html=1;rounded=0;exitX=0.5;exitY=0.5;exitDx=0;exitDy=0;exitPerimeter=0;entryX=0;entryY=0.5;entryDx=0;entryDy=0;" parent="1" source="KvBDM7igoajrg9fZ26sa-7" target="KvBDM7igoajrg9fZ26sa-40" edge="1">
          <mxGeometry width="50" height="50" relative="1" as="geometry">
            <mxPoint x="60" y="1250" as="sourcePoint" />
            <mxPoint x="110" y="1200" as="targetPoint" />
          </mxGeometry>
        </mxCell>
        <mxCell id="KvBDM7igoajrg9fZ26sa-52" value="añadirPropietario" style="ellipse;whiteSpace=wrap;html=1;fillColor=#bac8d3;strokeColor=#23445d;" parent="1" vertex="1">
          <mxGeometry x="230.5" y="2725" width="120" height="80" as="geometry" />
        </mxCell>
        <mxCell id="KvBDM7igoajrg9fZ26sa-53" value="editarPropietario" style="ellipse;whiteSpace=wrap;html=1;fillColor=#bac8d3;strokeColor=#23445d;" parent="1" vertex="1">
          <mxGeometry x="230.5" y="2825" width="120" height="80" as="geometry" />
        </mxCell>
        <mxCell id="KvBDM7igoajrg9fZ26sa-54" value="borrarPropietario" style="ellipse;whiteSpace=wrap;html=1;fillColor=#bac8d3;strokeColor=#23445d;" parent="1" vertex="1">
          <mxGeometry x="230.5" y="2925" width="120" height="80" as="geometry" />
        </mxCell>
        <mxCell id="KvBDM7igoajrg9fZ26sa-55" value="obtenerPropietarios" style="ellipse;whiteSpace=wrap;html=1;fillColor=#bac8d3;strokeColor=#23445d;" parent="1" vertex="1">
          <mxGeometry x="585.5" y="3025" width="120" height="80" as="geometry" />
        </mxCell>
        <mxCell id="KvBDM7igoajrg9fZ26sa-56" value="obtenerPropietario" style="ellipse;whiteSpace=wrap;html=1;fillColor=#bac8d3;strokeColor=#23445d;" parent="1" vertex="1">
          <mxGeometry x="470" y="2825" width="120" height="80" as="geometry" />
        </mxCell>
        <mxCell id="KvBDM7igoajrg9fZ26sa-57" value="" style="endArrow=none;html=1;rounded=0;entryX=0.5;entryY=0.5;entryDx=0;entryDy=0;entryPerimeter=0;exitX=0;exitY=0.5;exitDx=0;exitDy=0;" parent="1" source="KvBDM7igoajrg9fZ26sa-62" target="KvBDM7igoajrg9fZ26sa-7" edge="1">
          <mxGeometry width="50" height="50" relative="1" as="geometry">
            <mxPoint x="-413" y="1560" as="sourcePoint" />
            <mxPoint x="-363" y="1510" as="targetPoint" />
          </mxGeometry>
        </mxCell>
        <mxCell id="KvBDM7igoajrg9fZ26sa-59" value="" style="endArrow=none;html=1;rounded=0;exitX=0.5;exitY=0.5;exitDx=0;exitDy=0;exitPerimeter=0;entryX=0;entryY=0.5;entryDx=0;entryDy=0;" parent="1" source="KvBDM7igoajrg9fZ26sa-7" target="KvBDM7igoajrg9fZ26sa-54" edge="1">
          <mxGeometry width="50" height="50" relative="1" as="geometry">
            <mxPoint x="80" y="1310" as="sourcePoint" />
            <mxPoint x="130" y="1260" as="targetPoint" />
          </mxGeometry>
        </mxCell>
        <mxCell id="KvBDM7igoajrg9fZ26sa-60" value="" style="endArrow=none;html=1;rounded=0;exitX=0.5;exitY=0.5;exitDx=0;exitDy=0;exitPerimeter=0;entryX=0;entryY=0.5;entryDx=0;entryDy=0;" parent="1" source="KvBDM7igoajrg9fZ26sa-7" target="KvBDM7igoajrg9fZ26sa-53" edge="1">
          <mxGeometry width="50" height="50" relative="1" as="geometry">
            <mxPoint x="80" y="1310" as="sourcePoint" />
            <mxPoint x="130" y="1260" as="targetPoint" />
          </mxGeometry>
        </mxCell>
        <mxCell id="KvBDM7igoajrg9fZ26sa-61" value="" style="endArrow=none;html=1;rounded=0;exitX=0.5;exitY=0.5;exitDx=0;exitDy=0;exitPerimeter=0;entryX=0;entryY=0.5;entryDx=0;entryDy=0;" parent="1" source="KvBDM7igoajrg9fZ26sa-7" target="KvBDM7igoajrg9fZ26sa-52" edge="1">
          <mxGeometry width="50" height="50" relative="1" as="geometry">
            <mxPoint x="80" y="1310" as="sourcePoint" />
            <mxPoint x="130" y="1260" as="targetPoint" />
          </mxGeometry>
        </mxCell>
        <mxCell id="KvBDM7igoajrg9fZ26sa-62" value="añadirEstacion" style="ellipse;whiteSpace=wrap;html=1;fillColor=#ffcccc;strokeColor=#36393d;" parent="1" vertex="1">
          <mxGeometry x="219.25" y="3220" width="120" height="80" as="geometry" />
        </mxCell>
        <mxCell id="KvBDM7igoajrg9fZ26sa-63" value="editarEstacion" style="ellipse;whiteSpace=wrap;html=1;fillColor=#ffcccc;strokeColor=#36393d;" parent="1" vertex="1">
          <mxGeometry x="219.25" y="3320" width="120" height="80" as="geometry" />
        </mxCell>
        <mxCell id="KvBDM7igoajrg9fZ26sa-64" value="borrarEstacion" style="ellipse;whiteSpace=wrap;html=1;fillColor=#ffcccc;strokeColor=#36393d;" parent="1" vertex="1">
          <mxGeometry x="219.25" y="3420" width="120" height="80" as="geometry" />
        </mxCell>
        <mxCell id="KvBDM7igoajrg9fZ26sa-66" value="obtenerEstacion" style="ellipse;whiteSpace=wrap;html=1;fillColor=#ffcccc;strokeColor=#36393d;" parent="1" vertex="1">
          <mxGeometry x="219.25" y="3520" width="120" height="80" as="geometry" />
        </mxCell>
        <mxCell id="KvBDM7igoajrg9fZ26sa-67" value="" style="endArrow=none;html=1;rounded=0;entryX=0.5;entryY=0.5;entryDx=0;entryDy=0;entryPerimeter=0;exitX=0;exitY=0.5;exitDx=0;exitDy=0;" parent="1" source="KvBDM7igoajrg9fZ26sa-63" target="KvBDM7igoajrg9fZ26sa-7" edge="1">
          <mxGeometry width="50" height="50" relative="1" as="geometry">
            <mxPoint x="-413" y="1970" as="sourcePoint" />
            <mxPoint x="-363" y="1920" as="targetPoint" />
          </mxGeometry>
        </mxCell>
        <mxCell id="KvBDM7igoajrg9fZ26sa-68" value="" style="endArrow=none;html=1;rounded=0;exitX=0;exitY=0.5;exitDx=0;exitDy=0;entryX=0.5;entryY=0.5;entryDx=0;entryDy=0;entryPerimeter=0;" parent="1" source="KvBDM7igoajrg9fZ26sa-64" target="KvBDM7igoajrg9fZ26sa-7" edge="1">
          <mxGeometry width="50" height="50" relative="1" as="geometry">
            <mxPoint x="220" y="2040" as="sourcePoint" />
            <mxPoint x="270" y="1990" as="targetPoint" />
          </mxGeometry>
        </mxCell>
        <mxCell id="KvBDM7igoajrg9fZ26sa-70" value="segunMatricula" style="ellipse;whiteSpace=wrap;html=1;fillColor=#b0e3e6;strokeColor=#0e8088;" parent="1" vertex="1">
          <mxGeometry x="229.5" y="2560" width="120" height="80" as="geometry" />
        </mxCell>
        <mxCell id="KvBDM7igoajrg9fZ26sa-71" value="segunTipoMotor" style="ellipse;whiteSpace=wrap;html=1;fillColor=#b0e3e6;strokeColor=#0e8088;" parent="1" vertex="1">
          <mxGeometry x="419.75" y="2560" width="120" height="80" as="geometry" />
        </mxCell>
        <mxCell id="KvBDM7igoajrg9fZ26sa-72" value="" style="endArrow=none;html=1;rounded=0;entryX=0;entryY=0.5;entryDx=0;entryDy=0;exitX=0.5;exitY=0.5;exitDx=0;exitDy=0;exitPerimeter=0;" parent="1" source="KvBDM7igoajrg9fZ26sa-7" edge="1">
          <mxGeometry width="50" height="50" relative="1" as="geometry">
            <mxPoint x="120" y="1490" as="sourcePoint" />
            <mxPoint x="229.75" y="2600" as="targetPoint" />
          </mxGeometry>
        </mxCell>
        <mxCell id="KvBDM7igoajrg9fZ26sa-73" value="filtrarPropietarioSegunDni" style="ellipse;whiteSpace=wrap;html=1;fillColor=#bac8d3;strokeColor=#23445d;" parent="1" vertex="1">
          <mxGeometry x="213" y="3025" width="155" height="80" as="geometry" />
        </mxCell>
        <mxCell id="KvBDM7igoajrg9fZ26sa-75" value="" style="endArrow=none;html=1;rounded=0;entryX=0;entryY=0.5;entryDx=0;entryDy=0;exitX=0.5;exitY=0.5;exitDx=0;exitDy=0;exitPerimeter=0;" parent="1" source="KvBDM7igoajrg9fZ26sa-7" target="KvBDM7igoajrg9fZ26sa-73" edge="1">
          <mxGeometry width="50" height="50" relative="1" as="geometry">
            <mxPoint x="-350" y="1290" as="sourcePoint" />
            <mxPoint x="230" y="2230" as="targetPoint" />
          </mxGeometry>
        </mxCell>
        <mxCell id="KvBDM7igoajrg9fZ26sa-78" value="&amp;lt;include&amp;gt;" style="html=1;verticalAlign=bottom;endArrow=open;dashed=1;endSize=8;edgeStyle=elbowEdgeStyle;elbow=vertical;curved=0;rounded=0;exitX=1;exitY=0.5;exitDx=0;exitDy=0;entryX=1;entryY=0.5;entryDx=0;entryDy=0;" parent="1" source="KvBDM7igoajrg9fZ26sa-9" target="KvBDM7igoajrg9fZ26sa-8" edge="1">
          <mxGeometry relative="1" as="geometry">
            <mxPoint x="400" y="540" as="sourcePoint" />
            <mxPoint x="310" y="450" as="targetPoint" />
            <Array as="points">
              <mxPoint x="450" y="290" />
              <mxPoint x="320" y="180" />
              <mxPoint x="330" y="340" />
              <mxPoint x="320" y="400" />
            </Array>
          </mxGeometry>
        </mxCell>
        <mxCell id="KvBDM7igoajrg9fZ26sa-79" value="&amp;lt;include&amp;gt;" style="html=1;verticalAlign=bottom;endArrow=open;dashed=1;endSize=8;edgeStyle=elbowEdgeStyle;elbow=vertical;curved=0;rounded=0;exitX=1;exitY=0.5;exitDx=0;exitDy=0;entryX=1;entryY=0.5;entryDx=0;entryDy=0;" parent="1" source="KvBDM7igoajrg9fZ26sa-10" target="KvBDM7igoajrg9fZ26sa-8" edge="1">
          <mxGeometry relative="1" as="geometry">
            <mxPoint x="410" y="350" as="sourcePoint" />
            <mxPoint x="380" y="330" as="targetPoint" />
            <Array as="points">
              <mxPoint x="370" y="355" />
            </Array>
          </mxGeometry>
        </mxCell>
        <mxCell id="P36nhuDA0aDrZZRjovWK-1" value="&amp;lt;extend&amp;gt;" style="html=1;verticalAlign=bottom;endArrow=open;dashed=1;endSize=8;edgeStyle=elbowEdgeStyle;elbow=vertical;curved=0;rounded=0;exitX=0;exitY=0.5;exitDx=0;exitDy=0;" parent="1" source="KvBDM7igoajrg9fZ26sa-26" edge="1">
          <mxGeometry relative="1" as="geometry">
            <mxPoint x="390" y="1040" as="sourcePoint" />
            <mxPoint x="320" y="1100" as="targetPoint" />
            <Array as="points">
              <mxPoint x="340" y="1145" />
            </Array>
          </mxGeometry>
        </mxCell>
        <mxCell id="P36nhuDA0aDrZZRjovWK-2" value="&amp;lt;extend&amp;gt;" style="html=1;verticalAlign=bottom;endArrow=open;dashed=1;endSize=8;edgeStyle=elbowEdgeStyle;elbow=vertical;curved=0;rounded=0;entryX=1;entryY=0.5;entryDx=0;entryDy=0;exitX=0;exitY=0.5;exitDx=0;exitDy=0;" parent="1" source="KvBDM7igoajrg9fZ26sa-25" target="KvBDM7igoajrg9fZ26sa-23" edge="1">
          <mxGeometry relative="1" as="geometry">
            <mxPoint x="390" y="1040" as="sourcePoint" />
            <mxPoint x="310" y="1040" as="targetPoint" />
            <Array as="points">
              <mxPoint x="340" y="1050" />
            </Array>
          </mxGeometry>
        </mxCell>
        <mxCell id="P36nhuDA0aDrZZRjovWK-4" value="&amp;lt;include&amp;gt;" style="html=1;verticalAlign=bottom;endArrow=open;dashed=1;endSize=8;edgeStyle=elbowEdgeStyle;elbow=vertical;curved=0;rounded=0;exitX=1;exitY=0.5;exitDx=0;exitDy=0;entryX=0;entryY=0.5;entryDx=0;entryDy=0;" parent="1" source="KvBDM7igoajrg9fZ26sa-14" target="KvBDM7igoajrg9fZ26sa-16" edge="1">
          <mxGeometry x="-0.0164" relative="1" as="geometry">
            <mxPoint x="320.0000000000091" y="720" as="sourcePoint" />
            <mxPoint x="290" y="790" as="targetPoint" />
            <mxPoint as="offset" />
            <Array as="points">
              <mxPoint x="380" y="600" />
            </Array>
          </mxGeometry>
        </mxCell>
        <mxCell id="P36nhuDA0aDrZZRjovWK-7" value="&amp;lt;include&amp;gt;" style="html=1;verticalAlign=bottom;endArrow=open;dashed=1;endSize=8;edgeStyle=elbowEdgeStyle;elbow=vertical;curved=0;rounded=0;exitX=1;exitY=0.5;exitDx=0;exitDy=0;entryX=0.5;entryY=1;entryDx=0;entryDy=0;" parent="1" source="KvBDM7igoajrg9fZ26sa-18" target="KvBDM7igoajrg9fZ26sa-12" edge="1">
          <mxGeometry relative="1" as="geometry">
            <mxPoint x="530" y="640" as="sourcePoint" />
            <mxPoint x="450" y="640" as="targetPoint" />
            <Array as="points">
              <mxPoint x="620" y="790" />
              <mxPoint x="570" y="780" />
            </Array>
          </mxGeometry>
        </mxCell>
        <mxCell id="P36nhuDA0aDrZZRjovWK-10" value="&amp;lt;include&amp;gt;" style="html=1;verticalAlign=bottom;endArrow=open;dashed=1;endSize=8;edgeStyle=elbowEdgeStyle;elbow=vertical;curved=0;rounded=0;exitX=1;exitY=0.5;exitDx=0;exitDy=0;" parent="1" source="KvBDM7igoajrg9fZ26sa-30" edge="1">
          <mxGeometry relative="1" as="geometry">
            <mxPoint x="530" y="640" as="sourcePoint" />
            <mxPoint x="670" y="460" as="targetPoint" />
            <Array as="points">
              <mxPoint x="490" y="540" />
              <mxPoint x="440" y="480" />
              <mxPoint x="500" y="480" />
              <mxPoint x="450" y="540" />
            </Array>
          </mxGeometry>
        </mxCell>
        <mxCell id="P36nhuDA0aDrZZRjovWK-11" value="&amp;lt;include&amp;gt;" style="html=1;verticalAlign=bottom;endArrow=open;dashed=1;endSize=8;edgeStyle=elbowEdgeStyle;elbow=vertical;entryX=0;entryY=0.5;entryDx=0;entryDy=0;exitX=1;exitY=0.5;exitDx=0;exitDy=0;rounded=0;" parent="1" source="KvBDM7igoajrg9fZ26sa-31" target="KvBDM7igoajrg9fZ26sa-32" edge="1">
          <mxGeometry relative="1" as="geometry">
            <mxPoint x="419.75" y="1120" as="sourcePoint" />
            <mxPoint x="339.75" y="1120" as="targetPoint" />
          </mxGeometry>
        </mxCell>
        <mxCell id="P36nhuDA0aDrZZRjovWK-12" value="&amp;lt;include&amp;gt;" style="html=1;verticalAlign=bottom;endArrow=open;dashed=1;endSize=8;edgeStyle=elbowEdgeStyle;elbow=vertical;curved=0;rounded=0;entryX=0.5;entryY=1;entryDx=0;entryDy=0;exitX=1;exitY=0.5;exitDx=0;exitDy=0;" parent="1" source="KvBDM7igoajrg9fZ26sa-40" target="KvBDM7igoajrg9fZ26sa-44" edge="1">
          <mxGeometry relative="1" as="geometry">
            <mxPoint x="349.75" y="2349" as="sourcePoint" />
            <mxPoint x="419.75" y="2429" as="targetPoint" />
            <Array as="points">
              <mxPoint x="370" y="2310" />
            </Array>
          </mxGeometry>
        </mxCell>
        <mxCell id="P36nhuDA0aDrZZRjovWK-13" value="&amp;lt;include&amp;gt;" style="html=1;verticalAlign=bottom;endArrow=open;dashed=1;endSize=8;edgeStyle=elbowEdgeStyle;elbow=vertical;curved=0;rounded=0;entryX=0.5;entryY=1;entryDx=0;entryDy=0;" parent="1" target="KvBDM7igoajrg9fZ26sa-44" edge="1">
          <mxGeometry relative="1" as="geometry">
            <mxPoint x="350" y="2420" as="sourcePoint" />
            <mxPoint x="460" y="2300" as="targetPoint" />
            <Array as="points">
              <mxPoint x="404.75" y="2359" />
            </Array>
          </mxGeometry>
        </mxCell>
        <mxCell id="P36nhuDA0aDrZZRjovWK-17" value="&amp;lt;include&amp;gt;" style="html=1;verticalAlign=bottom;endArrow=open;dashed=1;endSize=8;edgeStyle=elbowEdgeStyle;elbow=vertical;curved=0;rounded=0;entryX=0.5;entryY=1;entryDx=0;entryDy=0;exitX=1;exitY=0.5;exitDx=0;exitDy=0;" parent="1" source="KvBDM7igoajrg9fZ26sa-71" target="KvBDM7igoajrg9fZ26sa-43" edge="1">
          <mxGeometry relative="1" as="geometry">
            <mxPoint x="540" y="2690" as="sourcePoint" />
            <mxPoint x="644.75" y="2429" as="targetPoint" />
            <Array as="points">
              <mxPoint x="590" y="2600" />
              <mxPoint x="590" y="2700" />
              <mxPoint x="604.75" y="2669" />
              <mxPoint x="604.75" y="2649" />
            </Array>
          </mxGeometry>
        </mxCell>
        <mxCell id="P36nhuDA0aDrZZRjovWK-20" value="&amp;lt;include&amp;gt;" style="html=1;verticalAlign=bottom;endArrow=open;dashed=1;endSize=8;edgeStyle=elbowEdgeStyle;elbow=vertical;curved=0;rounded=0;exitX=1;exitY=0.5;exitDx=0;exitDy=0;entryX=0;entryY=0.5;entryDx=0;entryDy=0;" parent="1" source="KvBDM7igoajrg9fZ26sa-53" target="KvBDM7igoajrg9fZ26sa-56" edge="1">
          <mxGeometry relative="1" as="geometry">
            <mxPoint x="565.5" y="2905" as="sourcePoint" />
            <mxPoint x="485.5" y="2905" as="targetPoint" />
            <Array as="points">
              <mxPoint x="390" y="2865" />
              <mxPoint x="430" y="2870" />
              <mxPoint x="385.5" y="2805" />
              <mxPoint x="385.5" y="2865" />
            </Array>
          </mxGeometry>
        </mxCell>
        <mxCell id="P36nhuDA0aDrZZRjovWK-21" value="&amp;lt;include&amp;gt;" style="html=1;verticalAlign=bottom;endArrow=open;dashed=1;endSize=8;edgeStyle=elbowEdgeStyle;elbow=vertical;curved=0;rounded=0;exitX=1;exitY=0.5;exitDx=0;exitDy=0;entryX=0;entryY=0.5;entryDx=0;entryDy=0;" parent="1" source="KvBDM7igoajrg9fZ26sa-52" target="KvBDM7igoajrg9fZ26sa-56" edge="1">
          <mxGeometry x="-0.2222" relative="1" as="geometry">
            <mxPoint x="565.5" y="2905" as="sourcePoint" />
            <mxPoint x="485.5" y="2905" as="targetPoint" />
            <Array as="points" />
            <mxPoint as="offset" />
          </mxGeometry>
        </mxCell>
        <mxCell id="P36nhuDA0aDrZZRjovWK-22" value="" style="endArrow=none;html=1;rounded=0;exitX=0.5;exitY=0.5;exitDx=0;exitDy=0;exitPerimeter=0;entryX=0;entryY=0.5;entryDx=0;entryDy=0;" parent="1" source="KvBDM7igoajrg9fZ26sa-7" target="KvBDM7igoajrg9fZ26sa-43" edge="1">
          <mxGeometry width="50" height="50" relative="1" as="geometry">
            <mxPoint x="-383.25" y="1570" as="sourcePoint" />
            <mxPoint x="440" y="2440" as="targetPoint" />
          </mxGeometry>
        </mxCell>
        <mxCell id="P36nhuDA0aDrZZRjovWK-23" value="" style="endArrow=none;html=1;rounded=0;entryX=0;entryY=0.5;entryDx=0;entryDy=0;exitX=0.5;exitY=0.5;exitDx=0;exitDy=0;exitPerimeter=0;" parent="1" source="KvBDM7igoajrg9fZ26sa-7" target="KvBDM7igoajrg9fZ26sa-44" edge="1">
          <mxGeometry width="50" height="50" relative="1" as="geometry">
            <mxPoint x="-410" y="1380" as="sourcePoint" />
            <mxPoint x="509.75" y="1570" as="targetPoint" />
          </mxGeometry>
        </mxCell>
        <mxCell id="P36nhuDA0aDrZZRjovWK-24" value="" style="endArrow=none;html=1;rounded=0;exitX=0.5;exitY=0.5;exitDx=0;exitDy=0;exitPerimeter=0;entryX=0;entryY=0.5;entryDx=0;entryDy=0;" parent="1" source="KvBDM7igoajrg9fZ26sa-7" target="KvBDM7igoajrg9fZ26sa-8" edge="1">
          <mxGeometry width="50" height="50" relative="1" as="geometry">
            <mxPoint x="400" y="1010" as="sourcePoint" />
            <mxPoint x="450" y="960" as="targetPoint" />
          </mxGeometry>
        </mxCell>
        <mxCell id="P36nhuDA0aDrZZRjovWK-25" value="&amp;lt;include" style="html=1;verticalAlign=bottom;endArrow=open;dashed=1;endSize=8;edgeStyle=elbowEdgeStyle;elbow=vertical;curved=0;rounded=0;exitX=1;exitY=0.5;exitDx=0;exitDy=0;" parent="1" source="KvBDM7igoajrg9fZ26sa-73" edge="1">
          <mxGeometry relative="1" as="geometry">
            <mxPoint x="505.5" y="2825" as="sourcePoint" />
            <mxPoint x="585.5" y="3065" as="targetPoint" />
            <Array as="points">
              <mxPoint x="485.5" y="3065" />
            </Array>
          </mxGeometry>
        </mxCell>
        <mxCell id="P36nhuDA0aDrZZRjovWK-26" value="" style="endArrow=none;html=1;rounded=0;entryX=0;entryY=0.5;entryDx=0;entryDy=0;exitX=0.5;exitY=0.5;exitDx=0;exitDy=0;exitPerimeter=0;" parent="1" source="KvBDM7igoajrg9fZ26sa-7" target="KvBDM7igoajrg9fZ26sa-66" edge="1">
          <mxGeometry width="50" height="50" relative="1" as="geometry">
            <mxPoint x="-410" y="1380" as="sourcePoint" />
            <mxPoint x="480" y="2130" as="targetPoint" />
          </mxGeometry>
        </mxCell>
        <mxCell id="P36nhuDA0aDrZZRjovWK-28" value="&amp;lt;include&amp;gt;" style="html=1;verticalAlign=bottom;endArrow=open;dashed=1;endSize=8;edgeStyle=elbowEdgeStyle;elbow=vertical;curved=0;rounded=0;exitX=1;exitY=0.5;exitDx=0;exitDy=0;entryX=1;entryY=0.5;entryDx=0;entryDy=0;" parent="1" source="KvBDM7igoajrg9fZ26sa-63" target="KvBDM7igoajrg9fZ26sa-66" edge="1">
          <mxGeometry relative="1" as="geometry">
            <mxPoint x="574.25" y="3240" as="sourcePoint" />
            <mxPoint x="494.25" y="3240" as="targetPoint" />
            <Array as="points">
              <mxPoint x="504.25" y="3350" />
              <mxPoint x="524.25" y="3320" />
            </Array>
          </mxGeometry>
        </mxCell>
        <mxCell id="P36nhuDA0aDrZZRjovWK-29" value="&amp;lt;include&amp;gt;" style="html=1;verticalAlign=bottom;endArrow=open;dashed=1;endSize=8;edgeStyle=elbowEdgeStyle;elbow=vertical;curved=0;rounded=0;exitX=1;exitY=0.5;exitDx=0;exitDy=0;entryX=1;entryY=0.5;entryDx=0;entryDy=0;" parent="1" source="KvBDM7igoajrg9fZ26sa-62" target="KvBDM7igoajrg9fZ26sa-66" edge="1">
          <mxGeometry relative="1" as="geometry">
            <mxPoint x="574.25" y="3240" as="sourcePoint" />
            <mxPoint x="494.25" y="3240" as="targetPoint" />
            <Array as="points">
              <mxPoint x="594.25" y="3280" />
            </Array>
          </mxGeometry>
        </mxCell>
        <mxCell id="iK_hHrZVuLMgqwsBIru7-2" value="añadirTrabajador" style="ellipse;whiteSpace=wrap;html=1;fillColor=#e1d5e7;strokeColor=#9673a6;" parent="1" vertex="1">
          <mxGeometry x="229.5" y="1670" width="120" height="80" as="geometry" />
        </mxCell>
        <mxCell id="iK_hHrZVuLMgqwsBIru7-3" value="editarTrabajador" style="ellipse;whiteSpace=wrap;html=1;fillColor=#e1d5e7;strokeColor=#9673a6;" parent="1" vertex="1">
          <mxGeometry x="229.5" y="1770" width="120" height="80" as="geometry" />
        </mxCell>
        <mxCell id="iK_hHrZVuLMgqwsBIru7-4" value="borrarTrabajador" style="ellipse;whiteSpace=wrap;html=1;fillColor=#e1d5e7;strokeColor=#9673a6;" parent="1" vertex="1">
          <mxGeometry x="229.5" y="1870" width="120" height="80" as="geometry" />
        </mxCell>
        <mxCell id="iK_hHrZVuLMgqwsBIru7-5" value="obtenerTrabajador" style="ellipse;whiteSpace=wrap;html=1;fillColor=#e1d5e7;strokeColor=#9673a6;" parent="1" vertex="1">
          <mxGeometry x="229.5" y="1970" width="120" height="80" as="geometry" />
        </mxCell>
        <mxCell id="iK_hHrZVuLMgqwsBIru7-7" value="&amp;lt;include&amp;gt;" style="html=1;verticalAlign=bottom;endArrow=open;dashed=1;endSize=8;edgeStyle=elbowEdgeStyle;elbow=vertical;curved=0;rounded=0;exitX=1;exitY=0.5;exitDx=0;exitDy=0;entryX=1;entryY=0.5;entryDx=0;entryDy=0;" parent="1" source="iK_hHrZVuLMgqwsBIru7-3" target="iK_hHrZVuLMgqwsBIru7-5" edge="1">
          <mxGeometry relative="1" as="geometry">
            <mxPoint x="584.5" y="1690" as="sourcePoint" />
            <mxPoint x="504.5" y="1690" as="targetPoint" />
            <Array as="points">
              <mxPoint x="400" y="1870" />
              <mxPoint x="514.5" y="1800" />
              <mxPoint x="534.5" y="1770" />
            </Array>
          </mxGeometry>
        </mxCell>
        <mxCell id="iK_hHrZVuLMgqwsBIru7-8" value="&amp;lt;include&amp;gt;" style="html=1;verticalAlign=bottom;endArrow=open;dashed=1;endSize=8;edgeStyle=elbowEdgeStyle;elbow=vertical;curved=0;rounded=0;exitX=1;exitY=0.5;exitDx=0;exitDy=0;entryX=1;entryY=0.5;entryDx=0;entryDy=0;" parent="1" source="iK_hHrZVuLMgqwsBIru7-2" target="iK_hHrZVuLMgqwsBIru7-5" edge="1">
          <mxGeometry relative="1" as="geometry">
            <mxPoint x="584.5" y="1690" as="sourcePoint" />
            <mxPoint x="504.5" y="1690" as="targetPoint" />
            <Array as="points">
              <mxPoint x="430" y="1810" />
              <mxPoint x="604.5" y="1730" />
            </Array>
          </mxGeometry>
        </mxCell>
        <mxCell id="iK_hHrZVuLMgqwsBIru7-9" value="" style="endArrow=none;html=1;rounded=0;entryX=0;entryY=0.5;entryDx=0;entryDy=0;exitX=0.5;exitY=0.5;exitDx=0;exitDy=0;exitPerimeter=0;" parent="1" source="KvBDM7igoajrg9fZ26sa-7" target="iK_hHrZVuLMgqwsBIru7-4" edge="1">
          <mxGeometry width="50" height="50" relative="1" as="geometry">
            <mxPoint x="300" y="1820" as="sourcePoint" />
            <mxPoint x="350" y="1770" as="targetPoint" />
          </mxGeometry>
        </mxCell>
        <mxCell id="iK_hHrZVuLMgqwsBIru7-10" value="" style="endArrow=none;html=1;rounded=0;entryX=0;entryY=0.5;entryDx=0;entryDy=0;exitX=0.5;exitY=0.5;exitDx=0;exitDy=0;exitPerimeter=0;" parent="1" source="KvBDM7igoajrg9fZ26sa-7" target="iK_hHrZVuLMgqwsBIru7-3" edge="1">
          <mxGeometry width="50" height="50" relative="1" as="geometry">
            <mxPoint x="300" y="1820" as="sourcePoint" />
            <mxPoint x="350" y="1770" as="targetPoint" />
          </mxGeometry>
        </mxCell>
        <mxCell id="iK_hHrZVuLMgqwsBIru7-11" value="" style="endArrow=none;html=1;rounded=0;entryX=0;entryY=0.5;entryDx=0;entryDy=0;exitX=0.5;exitY=0.5;exitDx=0;exitDy=0;exitPerimeter=0;" parent="1" source="KvBDM7igoajrg9fZ26sa-7" target="iK_hHrZVuLMgqwsBIru7-2" edge="1">
          <mxGeometry width="50" height="50" relative="1" as="geometry">
            <mxPoint x="300" y="1820" as="sourcePoint" />
            <mxPoint x="350" y="1770" as="targetPoint" />
          </mxGeometry>
        </mxCell>
        <mxCell id="iK_hHrZVuLMgqwsBIru7-12" value="" style="endArrow=none;html=1;rounded=0;exitX=0;exitY=0.5;exitDx=0;exitDy=0;entryX=0.5;entryY=0.5;entryDx=0;entryDy=0;entryPerimeter=0;" parent="1" source="iK_hHrZVuLMgqwsBIru7-5" target="KvBDM7igoajrg9fZ26sa-7" edge="1">
          <mxGeometry width="50" height="50" relative="1" as="geometry">
            <mxPoint x="300" y="1820" as="sourcePoint" />
            <mxPoint x="350" y="1770" as="targetPoint" />
          </mxGeometry>
        </mxCell>
        <mxCell id="iK_hHrZVuLMgqwsBIru7-23" value="&amp;lt;include&amp;gt;" style="html=1;verticalAlign=bottom;endArrow=open;dashed=1;endSize=8;edgeStyle=elbowEdgeStyle;elbow=vertical;curved=0;rounded=0;exitX=1;exitY=0.5;exitDx=0;exitDy=0;entryX=1;entryY=0.5;entryDx=0;entryDy=0;" parent="1" source="KvBDM7igoajrg9fZ26sa-9" target="iK_hHrZVuLMgqwsBIru7-5" edge="1">
          <mxGeometry x="-0.5429" relative="1" as="geometry">
            <mxPoint x="690" y="420" as="sourcePoint" />
            <mxPoint x="710" y="1520" as="targetPoint" />
            <Array as="points">
              <mxPoint x="760" y="240" />
              <mxPoint x="610" y="170" />
            </Array>
            <mxPoint as="offset" />
          </mxGeometry>
        </mxCell>
        <mxCell id="iK_hHrZVuLMgqwsBIru7-28" value="&amp;lt;include&amp;gt;" style="html=1;verticalAlign=bottom;endArrow=open;dashed=1;endSize=8;edgeStyle=elbowEdgeStyle;elbow=vertical;curved=0;rounded=0;exitX=1;exitY=0.5;exitDx=0;exitDy=0;entryX=0.5;entryY=0;entryDx=0;entryDy=0;" parent="1" source="KvBDM7igoajrg9fZ26sa-9" target="KvBDM7igoajrg9fZ26sa-44" edge="1">
          <mxGeometry x="-0.567" relative="1" as="geometry">
            <mxPoint x="500" y="700" as="sourcePoint" />
            <mxPoint x="887" y="2258" as="targetPoint" />
            <Array as="points">
              <mxPoint x="960" y="2210" />
              <mxPoint x="960" y="2180" />
              <mxPoint x="960" y="2160" />
              <mxPoint x="960" y="2210" />
              <mxPoint x="960" y="2170" />
              <mxPoint x="960" y="2200" />
              <mxPoint x="960" y="2170" />
              <mxPoint x="720" y="170" />
            </Array>
            <mxPoint as="offset" />
          </mxGeometry>
        </mxCell>
        <mxCell id="iK_hHrZVuLMgqwsBIru7-29" value="&amp;lt;include&amp;gt;" style="html=1;verticalAlign=bottom;endArrow=open;dashed=1;endSize=8;edgeStyle=elbowEdgeStyle;elbow=vertical;curved=0;rounded=0;entryX=1;entryY=0.5;entryDx=0;entryDy=0;" parent="1" source="KvBDM7igoajrg9fZ26sa-40" target="KvBDM7igoajrg9fZ26sa-56" edge="1">
          <mxGeometry x="-0.3734" relative="1" as="geometry">
            <mxPoint x="524.5000000000077" y="2185" as="sourcePoint" />
            <mxPoint x="957.0000000000168" y="2865" as="targetPoint" />
            <Array as="points">
              <mxPoint x="960" y="2430" />
              <mxPoint x="950" y="2720" />
              <mxPoint x="600" y="2610" />
              <mxPoint x="1040" y="2610" />
            </Array>
            <mxPoint as="offset" />
          </mxGeometry>
        </mxCell>
        <mxCell id="iK_hHrZVuLMgqwsBIru7-30" value="&amp;lt;include&amp;gt;" style="html=1;verticalAlign=bottom;endArrow=open;dashed=1;endSize=8;edgeStyle=elbowEdgeStyle;elbow=vertical;curved=0;rounded=0;exitX=0.5;exitY=1;exitDx=0;exitDy=0;entryX=0.5;entryY=0;entryDx=0;entryDy=0;" parent="1" source="KvBDM7igoajrg9fZ26sa-16" target="KvBDM7igoajrg9fZ26sa-18" edge="1">
          <mxGeometry relative="1" as="geometry">
            <mxPoint x="390" y="680" as="sourcePoint" />
            <mxPoint x="310" y="680" as="targetPoint" />
          </mxGeometry>
        </mxCell>
        <mxCell id="iK_hHrZVuLMgqwsBIru7-31" value="&amp;lt;include&amp;gt;" style="html=1;verticalAlign=bottom;endArrow=open;dashed=1;endSize=8;edgeStyle=elbowEdgeStyle;elbow=vertical;curved=0;rounded=0;exitX=1;exitY=0.5;exitDx=0;exitDy=0;entryX=0;entryY=0.5;entryDx=0;entryDy=0;" parent="1" source="KvBDM7igoajrg9fZ26sa-70" target="KvBDM7igoajrg9fZ26sa-71" edge="1">
          <mxGeometry relative="1" as="geometry">
            <mxPoint x="410" y="2560" as="sourcePoint" />
            <mxPoint x="330" y="2560" as="targetPoint" />
          </mxGeometry>
        </mxCell>
        <mxCell id="dNpqoyhvKu2HC9lqtAju-1" value="&amp;lt;include&amp;gt;" style="html=1;verticalAlign=bottom;endArrow=open;dashed=1;endSize=8;edgeStyle=elbowEdgeStyle;elbow=vertical;curved=0;rounded=0;exitX=1;exitY=0.5;exitDx=0;exitDy=0;entryX=0.5;entryY=1;entryDx=0;entryDy=0;" parent="1" source="iK_hHrZVuLMgqwsBIru7-5" target="KvBDM7igoajrg9fZ26sa-32" edge="1">
          <mxGeometry x="0.4547" relative="1" as="geometry">
            <mxPoint x="610" y="1910" as="sourcePoint" />
            <mxPoint x="530" y="1910" as="targetPoint" />
            <Array as="points">
              <mxPoint x="510" y="2050" />
              <mxPoint x="510" y="2030" />
              <mxPoint x="570" y="2010" />
            </Array>
            <mxPoint as="offset" />
          </mxGeometry>
        </mxCell>
        <mxCell id="dNpqoyhvKu2HC9lqtAju-3" value="&amp;lt;include&amp;gt;" style="html=1;verticalAlign=bottom;endArrow=open;dashed=1;endSize=8;edgeStyle=elbowEdgeStyle;elbow=vertical;curved=0;rounded=0;entryX=0.5;entryY=0;entryDx=0;entryDy=0;exitX=1;exitY=0.5;exitDx=0;exitDy=0;" parent="1" source="KvBDM7igoajrg9fZ26sa-44" target="KvBDM7igoajrg9fZ26sa-43" edge="1">
          <mxGeometry x="-0.196" relative="1" as="geometry">
            <mxPoint x="580" y="2300" as="sourcePoint" />
            <mxPoint x="530" y="2430" as="targetPoint" />
            <Array as="points">
              <mxPoint x="590" y="2255" />
            </Array>
            <mxPoint as="offset" />
          </mxGeometry>
        </mxCell>
        <mxCell id="dNpqoyhvKu2HC9lqtAju-4" value="&amp;lt;include&amp;gt;" style="html=1;verticalAlign=bottom;endArrow=open;dashed=1;endSize=8;edgeStyle=elbowEdgeStyle;elbow=vertical;curved=0;rounded=0;exitX=0.5;exitY=1;exitDx=0;exitDy=0;entryX=0;entryY=0.5;entryDx=0;entryDy=0;" parent="1" source="KvBDM7igoajrg9fZ26sa-56" target="KvBDM7igoajrg9fZ26sa-55" edge="1">
          <mxGeometry x="0.0472" y="-2" relative="1" as="geometry">
            <mxPoint x="620" y="3000" as="sourcePoint" />
            <mxPoint x="580" y="3070" as="targetPoint" />
            <Array as="points">
              <mxPoint x="560" y="3065" />
            </Array>
            <mxPoint as="offset" />
          </mxGeometry>
        </mxCell>
        <mxCell id="dNpqoyhvKu2HC9lqtAju-11" value="obtenerEstaciones" style="ellipse;whiteSpace=wrap;html=1;fillColor=#f8cecc;strokeColor=#b85450;" parent="1" vertex="1">
          <mxGeometry x="219.25" y="3120" width="120.75" height="80" as="geometry" />
        </mxCell>
        <mxCell id="dNpqoyhvKu2HC9lqtAju-13" value="" style="endArrow=none;html=1;rounded=0;exitX=0;exitY=0.5;exitDx=0;exitDy=0;entryX=0.5;entryY=0.5;entryDx=0;entryDy=0;entryPerimeter=0;" parent="1" source="dNpqoyhvKu2HC9lqtAju-11" target="KvBDM7igoajrg9fZ26sa-7" edge="1">
          <mxGeometry width="50" height="50" relative="1" as="geometry">
            <mxPoint x="530" y="3160" as="sourcePoint" />
            <mxPoint x="580" y="3110" as="targetPoint" />
          </mxGeometry>
        </mxCell>
        <mxCell id="dNpqoyhvKu2HC9lqtAju-14" value="&amp;lt;include&amp;gt;" style="html=1;verticalAlign=bottom;endArrow=open;dashed=1;endSize=8;edgeStyle=elbowEdgeStyle;elbow=vertical;curved=0;rounded=0;exitX=0.5;exitY=1;exitDx=0;exitDy=0;entryX=1;entryY=0.5;entryDx=0;entryDy=0;" parent="1" source="KvBDM7igoajrg9fZ26sa-66" target="dNpqoyhvKu2HC9lqtAju-11" edge="1">
          <mxGeometry relative="1" as="geometry">
            <mxPoint x="140" y="3380" as="sourcePoint" />
            <mxPoint x="60" y="3380" as="targetPoint" />
            <Array as="points">
              <mxPoint x="750" y="3310" />
            </Array>
          </mxGeometry>
        </mxCell>
        <mxCell id="_ONjqz_-TlkS-YG3twwW-1" value="&amp;lt;extend&amp;gt;" style="html=1;verticalAlign=bottom;endArrow=open;dashed=1;endSize=8;edgeStyle=elbowEdgeStyle;elbow=vertical;curved=0;rounded=0;exitX=0;exitY=0.5;exitDx=0;exitDy=0;entryX=0;entryY=0.5;entryDx=0;entryDy=0;" parent="1" source="KvBDM7igoajrg9fZ26sa-9" target="KvBDM7igoajrg9fZ26sa-23" edge="1">
          <mxGeometry x="-0.8475" relative="1" as="geometry">
            <mxPoint x="50" y="640" as="sourcePoint" />
            <mxPoint x="200" y="720" as="targetPoint" />
            <Array as="points">
              <mxPoint x="140" y="170" />
              <mxPoint x="170" y="720" />
            </Array>
            <mxPoint x="-1" as="offset" />
          </mxGeometry>
        </mxCell>
        <mxCell id="sv_xBT72A2BDeOT9-iTR-2" value="&amp;lt;extend&amp;gt;" style="html=1;verticalAlign=bottom;endArrow=open;dashed=1;endSize=8;edgeStyle=elbowEdgeStyle;elbow=vertical;curved=0;rounded=0;exitX=0;exitY=0.5;exitDx=0;exitDy=0;entryX=0;entryY=0.5;entryDx=0;entryDy=0;" edge="1" parent="1" source="KvBDM7igoajrg9fZ26sa-10" target="KvBDM7igoajrg9fZ26sa-23">
          <mxGeometry x="-0.8475" relative="1" as="geometry">
            <mxPoint x="210" y="190" as="sourcePoint" />
            <mxPoint x="210" y="1070" as="targetPoint" />
            <Array as="points">
              <mxPoint x="140" y="280" />
              <mxPoint x="150" y="300" />
              <mxPoint x="160" y="330" />
              <mxPoint x="140" y="320" />
              <mxPoint x="170" y="260" />
              <mxPoint x="160" y="250" />
              <mxPoint x="190" y="740" />
            </Array>
            <mxPoint x="-1" as="offset" />
          </mxGeometry>
        </mxCell>
        <mxCell id="sv_xBT72A2BDeOT9-iTR-3" value="&amp;lt;include&amp;gt;" style="html=1;verticalAlign=bottom;endArrow=open;dashed=1;endSize=8;edgeStyle=elbowEdgeStyle;elbow=vertical;curved=0;rounded=0;exitX=1;exitY=0.5;exitDx=0;exitDy=0;entryX=1.001;entryY=0.489;entryDx=0;entryDy=0;entryPerimeter=0;" edge="1" parent="1" source="KvBDM7igoajrg9fZ26sa-41" target="KvBDM7igoajrg9fZ26sa-56">
          <mxGeometry x="-0.3734" relative="1" as="geometry">
            <mxPoint x="360" y="2320" as="sourcePoint" />
            <mxPoint x="590" y="2860" as="targetPoint" />
            <Array as="points">
              <mxPoint x="890" y="2440" />
              <mxPoint x="970" y="2440" />
              <mxPoint x="960" y="2730" />
              <mxPoint x="610" y="2620" />
              <mxPoint x="1050" y="2620" />
            </Array>
            <mxPoint as="offset" />
          </mxGeometry>
        </mxCell>
      </root>
    </mxGraphModel>
  </diagram>
</mxfile>
